<mxfile host="172.30.98.44" agent="Mozilla/5.0 (Windows NT 10.0; Win64; x64; rv:130.0) Gecko/20100101 Firefox/130.0" version="24.7.8">
  <diagram id="prtHgNgQTEPvFCAcTncT" name="Page-1">
    <mxGraphModel dx="3931" dy="1584" grid="0" gridSize="10" guides="1" tooltips="1" connect="1" arrows="1" fold="1" page="1" pageScale="1" pageWidth="4681" pageHeight="3300" math="0" shadow="0">
      <root>
        <mxCell id="0" />
        <mxCell id="1" parent="0" />
        <mxCell id="dNxyNK7c78bLwvsdeMH5-19" value="Pool" style="swimlane;html=1;childLayout=stackLayout;resizeParent=1;resizeParentMax=0;horizontal=0;startSize=20;horizontalStack=0;fillColor=#dae8fc;strokeColor=#6c8ebf;" parent="1" vertex="1">
          <mxGeometry x="440" y="320" width="3142" height="1564" as="geometry" />
        </mxCell>
        <mxCell id="dNxyNK7c78bLwvsdeMH5-20" value="Scheduling Admin" style="swimlane;html=1;startSize=20;horizontal=0;" parent="dNxyNK7c78bLwvsdeMH5-19" vertex="1">
          <mxGeometry x="20" width="3122" height="300" as="geometry" />
        </mxCell>
        <mxCell id="_1_HILt6iwRD2zHKjOKd-11" value="Radiation Oncologist Consult" style="whiteSpace=wrap;html=1;aspect=fixed;" vertex="1" parent="dNxyNK7c78bLwvsdeMH5-20">
          <mxGeometry x="190" y="110" width="80" height="80" as="geometry" />
        </mxCell>
        <mxCell id="dNxyNK7c78bLwvsdeMH5-23" value="Patient is Referred" style="ellipse;whiteSpace=wrap;html=1;" parent="dNxyNK7c78bLwvsdeMH5-20" vertex="1">
          <mxGeometry x="40" y="110" width="80" height="80" as="geometry" />
        </mxCell>
        <mxCell id="_1_HILt6iwRD2zHKjOKd-10" value="" style="edgeStyle=orthogonalEdgeStyle;rounded=0;orthogonalLoop=1;jettySize=auto;html=1;" edge="1" parent="dNxyNK7c78bLwvsdeMH5-20" source="dNxyNK7c78bLwvsdeMH5-23" target="_1_HILt6iwRD2zHKjOKd-11">
          <mxGeometry relative="1" as="geometry">
            <mxPoint x="180" y="130" as="targetPoint" />
          </mxGeometry>
        </mxCell>
        <mxCell id="_1_HILt6iwRD2zHKjOKd-35" value="Patient scheduled for Tx" style="rounded=1;whiteSpace=wrap;html=1;" vertex="1" parent="dNxyNK7c78bLwvsdeMH5-20">
          <mxGeometry x="900" y="120" width="120" height="60" as="geometry" />
        </mxCell>
        <mxCell id="_1_HILt6iwRD2zHKjOKd-38" value="" style="endArrow=classic;html=1;rounded=0;exitX=0.5;exitY=0;exitDx=0;exitDy=0;entryX=0.5;entryY=0;entryDx=0;entryDy=0;dashed=1;dashPattern=8 8;" edge="1" parent="dNxyNK7c78bLwvsdeMH5-20" source="dNxyNK7c78bLwvsdeMH5-23" target="_1_HILt6iwRD2zHKjOKd-35">
          <mxGeometry relative="1" as="geometry">
            <mxPoint x="130" y="80" as="sourcePoint" />
            <mxPoint x="230" y="80" as="targetPoint" />
            <Array as="points">
              <mxPoint x="520" y="80" />
            </Array>
          </mxGeometry>
        </mxCell>
        <mxCell id="_1_HILt6iwRD2zHKjOKd-39" value="Possibility 1" style="edgeLabel;resizable=0;html=1;;align=center;verticalAlign=middle;" connectable="0" vertex="1" parent="_1_HILt6iwRD2zHKjOKd-38">
          <mxGeometry relative="1" as="geometry" />
        </mxCell>
        <mxCell id="_1_HILt6iwRD2zHKjOKd-44" value="" style="endArrow=classic;html=1;rounded=0;dashed=1;dashPattern=8 8;" edge="1" parent="dNxyNK7c78bLwvsdeMH5-20" source="_1_HILt6iwRD2zHKjOKd-11" target="_1_HILt6iwRD2zHKjOKd-35">
          <mxGeometry relative="1" as="geometry">
            <mxPoint x="-190" y="-170" as="sourcePoint" />
            <mxPoint x="370" y="150" as="targetPoint" />
          </mxGeometry>
        </mxCell>
        <mxCell id="_1_HILt6iwRD2zHKjOKd-45" value="Possibility 2" style="edgeLabel;resizable=0;html=1;;align=center;verticalAlign=middle;" connectable="0" vertex="1" parent="_1_HILt6iwRD2zHKjOKd-44">
          <mxGeometry relative="1" as="geometry" />
        </mxCell>
        <mxCell id="dNxyNK7c78bLwvsdeMH5-21" value="Physicist" style="swimlane;html=1;startSize=20;horizontal=0;" parent="dNxyNK7c78bLwvsdeMH5-19" vertex="1">
          <mxGeometry x="20" y="300" width="3122" height="468" as="geometry">
            <mxRectangle x="20" y="120" width="430" height="30" as="alternateBounds" />
          </mxGeometry>
        </mxCell>
        <mxCell id="_1_HILt6iwRD2zHKjOKd-18" value="GK SIM &amp;amp; Make Mask" style="shape=process;whiteSpace=wrap;html=1;backgroundOutline=1;" vertex="1" parent="dNxyNK7c78bLwvsdeMH5-21">
          <mxGeometry x="530" y="70" width="120" height="60" as="geometry" />
        </mxCell>
        <mxCell id="_1_HILt6iwRD2zHKjOKd-49" value="GK Planning Frameless" style="shape=process;whiteSpace=wrap;html=1;backgroundOutline=1;" vertex="1" parent="dNxyNK7c78bLwvsdeMH5-21">
          <mxGeometry x="1037" y="70" width="120" height="60" as="geometry" />
        </mxCell>
        <mxCell id="_1_HILt6iwRD2zHKjOKd-58" value="Physics Second Check" style="shape=process;whiteSpace=wrap;html=1;backgroundOutline=1;fillColor=#fff2cc;strokeColor=#d6b656;" vertex="1" parent="dNxyNK7c78bLwvsdeMH5-21">
          <mxGeometry x="1320" y="60" width="120" height="60" as="geometry" />
        </mxCell>
        <mxCell id="_1_HILt6iwRD2zHKjOKd-65" value="GK Pre-Tx Initialize Documentation frameless" style="shape=process;whiteSpace=wrap;html=1;backgroundOutline=1;fillColor=#fff2cc;strokeColor=#d6b656;" vertex="1" parent="dNxyNK7c78bLwvsdeMH5-21">
          <mxGeometry x="1489" y="60" width="120" height="60" as="geometry" />
        </mxCell>
        <mxCell id="_1_HILt6iwRD2zHKjOKd-66" style="edgeStyle=orthogonalEdgeStyle;rounded=0;orthogonalLoop=1;jettySize=auto;html=1;entryX=0;entryY=0.5;entryDx=0;entryDy=0;" edge="1" parent="dNxyNK7c78bLwvsdeMH5-21" source="_1_HILt6iwRD2zHKjOKd-58" target="_1_HILt6iwRD2zHKjOKd-65">
          <mxGeometry relative="1" as="geometry" />
        </mxCell>
        <mxCell id="_1_HILt6iwRD2zHKjOKd-78" value="GK Tx Frameless" style="shape=process;whiteSpace=wrap;html=1;backgroundOutline=1;fillColor=#fff2cc;strokeColor=#d6b656;" vertex="1" parent="dNxyNK7c78bLwvsdeMH5-21">
          <mxGeometry x="1802" y="-1" width="104" height="463" as="geometry" />
        </mxCell>
        <mxCell id="_1_HILt6iwRD2zHKjOKd-84" value="Post-Tx Documentation frameless" style="shape=process;whiteSpace=wrap;html=1;backgroundOutline=1;" vertex="1" parent="dNxyNK7c78bLwvsdeMH5-21">
          <mxGeometry x="2218" y="142" width="244" height="122" as="geometry" />
        </mxCell>
        <mxCell id="_1_HILt6iwRD2zHKjOKd-1" value="Radiation Therapist" style="swimlane;html=1;startSize=20;horizontal=0;" vertex="1" parent="dNxyNK7c78bLwvsdeMH5-19">
          <mxGeometry x="20" y="768" width="3122" height="394" as="geometry" />
        </mxCell>
        <mxCell id="_1_HILt6iwRD2zHKjOKd-23" value="" style="edgeStyle=orthogonalEdgeStyle;rounded=0;orthogonalLoop=1;jettySize=auto;html=1;" edge="1" parent="_1_HILt6iwRD2zHKjOKd-1" source="_1_HILt6iwRD2zHKjOKd-7" target="_1_HILt6iwRD2zHKjOKd-22">
          <mxGeometry relative="1" as="geometry" />
        </mxCell>
        <mxCell id="_1_HILt6iwRD2zHKjOKd-7" value="Patient Scheduled for SIM and Make Mask" style="rounded=0;whiteSpace=wrap;html=1;fontFamily=Helvetica;fontSize=12;fontColor=#000000;align=center;" vertex="1" parent="_1_HILt6iwRD2zHKjOKd-1">
          <mxGeometry x="190" y="40" width="80" height="60" as="geometry" />
        </mxCell>
        <mxCell id="_1_HILt6iwRD2zHKjOKd-25" value="" style="edgeStyle=orthogonalEdgeStyle;rounded=0;orthogonalLoop=1;jettySize=auto;html=1;" edge="1" parent="_1_HILt6iwRD2zHKjOKd-1" source="_1_HILt6iwRD2zHKjOKd-22" target="_1_HILt6iwRD2zHKjOKd-24">
          <mxGeometry relative="1" as="geometry" />
        </mxCell>
        <mxCell id="_1_HILt6iwRD2zHKjOKd-22" value="&lt;div&gt;Patient checks in&lt;/div&gt;&lt;div&gt;(Q in Mosaiq)&lt;br&gt;&lt;/div&gt;" style="rounded=0;whiteSpace=wrap;html=1;fontColor=#000000;" vertex="1" parent="_1_HILt6iwRD2zHKjOKd-1">
          <mxGeometry x="330" y="40" width="120" height="60" as="geometry" />
        </mxCell>
        <mxCell id="_1_HILt6iwRD2zHKjOKd-24" value="Therapist finds the patient and brings them to GK Vault" style="whiteSpace=wrap;html=1;fontColor=#000000;rounded=0;" vertex="1" parent="_1_HILt6iwRD2zHKjOKd-1">
          <mxGeometry x="530" y="40" width="120" height="60" as="geometry" />
        </mxCell>
        <mxCell id="_1_HILt6iwRD2zHKjOKd-68" value="Locate and retrieve patient positioning mask" style="rounded=0;whiteSpace=wrap;html=1;" vertex="1" parent="_1_HILt6iwRD2zHKjOKd-1">
          <mxGeometry x="1489" y="55" width="120" height="60" as="geometry" />
        </mxCell>
        <mxCell id="_1_HILt6iwRD2zHKjOKd-74" value="GK Pre-Tx Initialize Documentation frameless" style="shape=process;whiteSpace=wrap;html=1;backgroundOutline=1;fillColor=#fff2cc;strokeColor=#d6b656;" vertex="1" parent="_1_HILt6iwRD2zHKjOKd-1">
          <mxGeometry x="1802" y="-2" width="104" height="398" as="geometry" />
        </mxCell>
        <mxCell id="_1_HILt6iwRD2zHKjOKd-5" value="Radiation Oncologist" style="swimlane;html=1;startSize=20;horizontal=0;" vertex="1" parent="dNxyNK7c78bLwvsdeMH5-19">
          <mxGeometry x="20" y="1162" width="3122" height="402" as="geometry" />
        </mxCell>
        <mxCell id="_1_HILt6iwRD2zHKjOKd-53" value="Physician Plan Review" style="whiteSpace=wrap;html=1;aspect=fixed;" vertex="1" parent="_1_HILt6iwRD2zHKjOKd-5">
          <mxGeometry x="1170" y="63" width="80" height="80" as="geometry" />
        </mxCell>
        <mxCell id="_1_HILt6iwRD2zHKjOKd-31" value="Physician reviews Diagnostic Report" style="shape=parallelogram;html=1;strokeWidth=2;perimeter=parallelogramPerimeter;whiteSpace=wrap;rounded=1;arcSize=12;size=0.23;" vertex="1" parent="_1_HILt6iwRD2zHKjOKd-5">
          <mxGeometry x="639" y="61" width="140" height="84" as="geometry" />
        </mxCell>
        <mxCell id="_1_HILt6iwRD2zHKjOKd-29" value="Physician Review Contours" style="whiteSpace=wrap;html=1;aspect=fixed;" vertex="1" parent="_1_HILt6iwRD2zHKjOKd-5">
          <mxGeometry x="809" y="63" width="80" height="80" as="geometry" />
        </mxCell>
        <mxCell id="_1_HILt6iwRD2zHKjOKd-33" style="edgeStyle=orthogonalEdgeStyle;rounded=0;orthogonalLoop=1;jettySize=auto;html=1;entryX=0;entryY=0.5;entryDx=0;entryDy=0;" edge="1" parent="_1_HILt6iwRD2zHKjOKd-5" source="_1_HILt6iwRD2zHKjOKd-31" target="_1_HILt6iwRD2zHKjOKd-29">
          <mxGeometry relative="1" as="geometry" />
        </mxCell>
        <mxCell id="_1_HILt6iwRD2zHKjOKd-34" style="edgeStyle=orthogonalEdgeStyle;rounded=0;orthogonalLoop=1;jettySize=auto;html=1;entryX=1;entryY=0.5;entryDx=0;entryDy=0;" edge="1" parent="_1_HILt6iwRD2zHKjOKd-5" source="_1_HILt6iwRD2zHKjOKd-29" target="_1_HILt6iwRD2zHKjOKd-31">
          <mxGeometry relative="1" as="geometry" />
        </mxCell>
        <mxCell id="_1_HILt6iwRD2zHKjOKd-79" value="GK Tx Frameless" style="shape=process;whiteSpace=wrap;html=1;backgroundOutline=1;fillColor=#fff2cc;strokeColor=#d6b656;" vertex="1" parent="_1_HILt6iwRD2zHKjOKd-5">
          <mxGeometry x="1802" y="-398" width="104" height="398" as="geometry" />
        </mxCell>
        <mxCell id="_1_HILt6iwRD2zHKjOKd-80" value="GK Tx Frameless" style="shape=process;whiteSpace=wrap;html=1;backgroundOutline=1;fillColor=#fff2cc;strokeColor=#d6b656;" vertex="1" parent="_1_HILt6iwRD2zHKjOKd-5">
          <mxGeometry x="1802" y="4" width="104" height="398" as="geometry" />
        </mxCell>
        <mxCell id="_1_HILt6iwRD2zHKjOKd-19" value="" style="edgeStyle=orthogonalEdgeStyle;rounded=0;orthogonalLoop=1;jettySize=auto;html=1;exitX=0.5;exitY=1;exitDx=0;exitDy=0;entryX=0.5;entryY=0;entryDx=0;entryDy=0;" edge="1" parent="dNxyNK7c78bLwvsdeMH5-19" source="dNxyNK7c78bLwvsdeMH5-23" target="_1_HILt6iwRD2zHKjOKd-7">
          <mxGeometry relative="1" as="geometry">
            <mxPoint x="250" y="570" as="targetPoint" />
            <Array as="points">
              <mxPoint x="100" y="420" />
              <mxPoint x="250" y="420" />
            </Array>
          </mxGeometry>
        </mxCell>
        <mxCell id="_1_HILt6iwRD2zHKjOKd-26" style="edgeStyle=orthogonalEdgeStyle;rounded=0;orthogonalLoop=1;jettySize=auto;html=1;entryX=0.5;entryY=1;entryDx=0;entryDy=0;" edge="1" parent="dNxyNK7c78bLwvsdeMH5-19" source="_1_HILt6iwRD2zHKjOKd-24" target="_1_HILt6iwRD2zHKjOKd-18">
          <mxGeometry relative="1" as="geometry" />
        </mxCell>
        <mxCell id="_1_HILt6iwRD2zHKjOKd-30" style="edgeStyle=orthogonalEdgeStyle;rounded=0;orthogonalLoop=1;jettySize=auto;html=1;entryX=0.5;entryY=0;entryDx=0;entryDy=0;" edge="1" parent="dNxyNK7c78bLwvsdeMH5-19" source="_1_HILt6iwRD2zHKjOKd-18" target="_1_HILt6iwRD2zHKjOKd-29">
          <mxGeometry relative="1" as="geometry" />
        </mxCell>
        <mxCell id="_1_HILt6iwRD2zHKjOKd-47" style="edgeStyle=orthogonalEdgeStyle;rounded=0;orthogonalLoop=1;jettySize=auto;html=1;entryX=0.5;entryY=1;entryDx=0;entryDy=0;" edge="1" parent="dNxyNK7c78bLwvsdeMH5-19" source="_1_HILt6iwRD2zHKjOKd-29" target="_1_HILt6iwRD2zHKjOKd-49">
          <mxGeometry relative="1" as="geometry">
            <mxPoint x="1033" y="407" as="targetPoint" />
          </mxGeometry>
        </mxCell>
        <mxCell id="_1_HILt6iwRD2zHKjOKd-54" style="edgeStyle=orthogonalEdgeStyle;rounded=0;orthogonalLoop=1;jettySize=auto;html=1;" edge="1" parent="dNxyNK7c78bLwvsdeMH5-19" source="_1_HILt6iwRD2zHKjOKd-49" target="_1_HILt6iwRD2zHKjOKd-53">
          <mxGeometry relative="1" as="geometry" />
        </mxCell>
        <mxCell id="_1_HILt6iwRD2zHKjOKd-55" style="edgeStyle=orthogonalEdgeStyle;rounded=0;orthogonalLoop=1;jettySize=auto;html=1;entryX=0.5;entryY=1;entryDx=0;entryDy=0;" edge="1" parent="dNxyNK7c78bLwvsdeMH5-19" source="_1_HILt6iwRD2zHKjOKd-53" target="_1_HILt6iwRD2zHKjOKd-58">
          <mxGeometry relative="1" as="geometry">
            <mxPoint x="1397" y="426" as="targetPoint" />
          </mxGeometry>
        </mxCell>
        <mxCell id="_1_HILt6iwRD2zHKjOKd-61" style="edgeStyle=orthogonalEdgeStyle;rounded=0;orthogonalLoop=1;jettySize=auto;html=1;dashed=1;dashPattern=8 8;exitX=0.5;exitY=0;exitDx=0;exitDy=0;" edge="1" parent="dNxyNK7c78bLwvsdeMH5-19" source="_1_HILt6iwRD2zHKjOKd-58" target="_1_HILt6iwRD2zHKjOKd-35">
          <mxGeometry relative="1" as="geometry">
            <mxPoint x="1240" y="268" as="sourcePoint" />
            <mxPoint x="1304" y="22" as="targetPoint" />
            <Array as="points">
              <mxPoint x="1400" y="142" />
              <mxPoint x="1404" y="142" />
              <mxPoint x="1404" y="150" />
            </Array>
          </mxGeometry>
        </mxCell>
        <mxCell id="_1_HILt6iwRD2zHKjOKd-62" value="Possibility 3" style="edgeLabel;html=1;align=center;verticalAlign=middle;resizable=0;points=[];" vertex="1" connectable="0" parent="_1_HILt6iwRD2zHKjOKd-61">
          <mxGeometry x="0.1158" relative="1" as="geometry">
            <mxPoint as="offset" />
          </mxGeometry>
        </mxCell>
        <mxCell id="_1_HILt6iwRD2zHKjOKd-69" style="edgeStyle=orthogonalEdgeStyle;rounded=0;orthogonalLoop=1;jettySize=auto;html=1;entryX=0.5;entryY=0;entryDx=0;entryDy=0;" edge="1" parent="dNxyNK7c78bLwvsdeMH5-19" source="_1_HILt6iwRD2zHKjOKd-65" target="_1_HILt6iwRD2zHKjOKd-68">
          <mxGeometry relative="1" as="geometry" />
        </mxCell>
        <mxCell id="_1_HILt6iwRD2zHKjOKd-37" style="edgeStyle=orthogonalEdgeStyle;rounded=0;orthogonalLoop=1;jettySize=auto;html=1;dashed=1;dashPattern=8 8;exitX=1;exitY=0.5;exitDx=0;exitDy=0;entryX=0.5;entryY=1;entryDx=0;entryDy=0;" edge="1" parent="dNxyNK7c78bLwvsdeMH5-19" source="_1_HILt6iwRD2zHKjOKd-29" target="_1_HILt6iwRD2zHKjOKd-35">
          <mxGeometry relative="1" as="geometry">
            <mxPoint x="923" y="554" as="sourcePoint" />
            <mxPoint x="994.0000000000005" y="11" as="targetPoint" />
            <Array as="points">
              <mxPoint x="980" y="1265" />
            </Array>
          </mxGeometry>
        </mxCell>
        <mxCell id="_1_HILt6iwRD2zHKjOKd-46" value="Possibility 3" style="edgeLabel;html=1;align=center;verticalAlign=middle;resizable=0;points=[];" vertex="1" connectable="0" parent="_1_HILt6iwRD2zHKjOKd-37">
          <mxGeometry x="0.1158" relative="1" as="geometry">
            <mxPoint as="offset" />
          </mxGeometry>
        </mxCell>
        <mxCell id="_1_HILt6iwRD2zHKjOKd-73" style="edgeStyle=orthogonalEdgeStyle;rounded=0;orthogonalLoop=1;jettySize=auto;html=1;exitX=0.5;exitY=1;exitDx=0;exitDy=0;" edge="1" parent="dNxyNK7c78bLwvsdeMH5-19" source="_1_HILt6iwRD2zHKjOKd-68" target="_1_HILt6iwRD2zHKjOKd-79">
          <mxGeometry relative="1" as="geometry">
            <mxPoint x="1760.000000000001" y="984" as="targetPoint" />
          </mxGeometry>
        </mxCell>
        <mxCell id="_1_HILt6iwRD2zHKjOKd-81" style="edgeStyle=orthogonalEdgeStyle;rounded=0;orthogonalLoop=1;jettySize=auto;html=1;entryX=0.5;entryY=1;entryDx=0;entryDy=0;" edge="1" parent="dNxyNK7c78bLwvsdeMH5-19" source="_1_HILt6iwRD2zHKjOKd-79" target="_1_HILt6iwRD2zHKjOKd-84">
          <mxGeometry relative="1" as="geometry">
            <mxPoint x="2298.666666666667" y="612" as="targetPoint" />
          </mxGeometry>
        </mxCell>
        <mxCell id="_1_HILt6iwRD2zHKjOKd-20" value="&lt;h1 style=&quot;margin-top: 0px;&quot;&gt;GK Frameless Swimlane&lt;br&gt;&lt;/h1&gt;&lt;p&gt;Lorem ipsum dolor sit amet, consectetur adipisicing elit, sed do eiusmod tempor incididunt ut labore et dolore magna aliqua.&lt;/p&gt;" style="text;html=1;whiteSpace=wrap;overflow=hidden;rounded=0;" vertex="1" parent="1">
          <mxGeometry x="30" y="40" width="440" height="200" as="geometry" />
        </mxCell>
      </root>
    </mxGraphModel>
  </diagram>
</mxfile>
